<svg width="55" height="56" viewBox="0 0 55 56" fill="none" xmlns="http://www.w3.org/2000/svg">
<ellipse cx="27.4203" cy="27.9552" rx="27.4203" ry="27.9552" fill="#4E93D1"/>
<path d="M41.1305 15.2483C41.4712 15.2483 41.762 15.3733 42.003 15.6234C42.2523 15.8652 42.3769 16.157 42.3769 16.4988V40.2587C42.3769 40.6005 42.2523 40.8923 42.003 41.1341C41.762 41.3842 41.4712 41.5093 41.1305 41.5093H21.1885C20.8478 41.5093 20.557 41.3842 20.316 41.1341C20.0668 40.8923 19.9421 40.6005 19.9421 40.2587V35.8819H13.7102C13.3696 35.8819 13.0787 35.7569 12.8378 35.5067C12.5885 35.265 12.4639 34.9732 12.4639 34.6314V22.1262C12.4639 21.7844 12.5885 21.4926 12.8378 21.2508C13.0704 21.0007 13.3613 20.8756 13.7102 20.8756H19.9421V16.4988C19.9421 16.157 20.0668 15.8652 20.316 15.6234C20.557 15.3733 20.8478 15.2483 21.1885 15.2483H41.1305ZM19.9421 29.9794L21.712 33.3058H24.3792L21.4129 28.4663L24.3294 23.7143H21.7618L20.1415 26.7156L20.0792 26.8156L20.0294 26.9282L19.2317 25.3275L18.4091 23.7143H15.692L18.5213 28.4913L15.4302 33.3058H18.1224L19.9421 29.9794ZM30.2247 39.6335V35.8819H21.8117V39.6335H30.2247ZM30.2247 34.0061V29.3167H27.4204V34.0061H30.2247ZM30.2247 27.4409V22.7514H27.4204V27.4409H30.2247ZM30.2247 20.8756V17.1241H21.8117V20.8756H30.2247ZM40.5073 39.6335V35.8819H32.0943V39.6335H40.5073ZM40.5073 34.0061V29.3167H32.0943V34.0061H40.5073ZM40.5073 27.4409V22.7514H32.0943V27.4409H40.5073ZM40.5073 20.8756V17.1241H32.0943V20.8756H40.5073Z" fill="white"/>
</svg>
